<svg width="145" height="28" viewBox="0 0 145 28" fill="none" xmlns="http://www.w3.org/2000/svg">
<path fill-rule="evenodd" clip-rule="evenodd" d="M3.73238 0.6073C1.74315 0.6073 0.130554 2.21989 0.130554 4.20912V20.9595C0.130554 22.9487 1.74314 24.5613 3.73237 24.5613H20.4827C22.472 24.5613 24.0846 22.9487 24.0846 20.9595V4.20912C24.0846 2.21989 22.472 0.6073 20.4827 0.6073H3.73238ZM13.754 13.3616L13.7275 13.4045H13.6859C13.6391 13.4174 13.5945 13.4281 13.5498 13.4388L13.5498 13.4388L13.5498 13.4388L13.5498 13.4388C13.5051 13.4496 13.4604 13.4603 13.4136 13.4732C12.6988 13.6964 11.9755 13.7909 11.2351 13.7651C10.8096 13.7479 10.4011 13.6707 10.0012 13.5161C9.54167 13.3358 9.1332 13.0696 8.82685 12.6747C8.42689 12.1681 8.26521 11.5756 8.22266 10.9488C8.18862 10.3478 8.24819 9.76393 8.4354 9.18865C8.73324 8.26134 9.24382 7.47999 9.96715 6.83602C10.5203 6.33802 11.133 5.95164 11.8053 5.66829C12.5541 5.34202 13.3455 5.17029 14.1539 5.11878C14.656 5.09302 15.1496 5.11019 15.6431 5.18747C16.1367 5.26474 16.6218 5.38495 17.0983 5.56526C17.2369 5.61462 17.2349 5.63245 17.2195 5.76977L17.2174 5.7885C17.214 5.83006 17.2099 5.87161 17.2058 5.9131L17.2058 5.91322L17.2058 5.91333C17.1895 6.07748 17.1733 6.24054 17.2004 6.39812C17.3706 7.39413 18.4684 7.99516 19.413 7.50575C20.5192 6.93047 20.4852 5.51374 19.6597 4.87836C19.3789 4.65512 19.0641 4.5435 18.7152 4.5435C18.4854 4.53491 18.2641 4.6036 18.0599 4.69805C17.9663 4.74098 17.8897 4.72381 17.8046 4.67229C17.1494 4.24298 16.4601 3.88236 15.7197 3.61619C14.8432 3.2985 13.9412 3.10101 13.0136 3.05808C12.5201 3.04091 12.035 3.05808 11.55 3.13536C10.9628 3.22122 10.3926 3.37577 9.84802 3.61619C8.8694 4.03691 8.04395 4.67229 7.32913 5.47081C6.61432 6.27792 6.0782 7.18806 5.73781 8.2184C5.54209 8.79368 5.43146 9.38613 5.39742 9.99575C5.36338 10.4766 5.38891 10.966 5.45699 11.4468C5.48252 11.6271 5.51656 11.7989 5.5506 11.9706C5.55911 12.0393 5.60166 12.065 5.66974 12.065C5.68675 12.065 5.70376 12.0672 5.72077 12.0693L5.72079 12.0693C5.73781 12.0715 5.75483 12.0736 5.77185 12.0736C6.27393 12.1251 6.66537 12.3656 6.92918 12.7863C7.33764 13.4388 7.22702 14.2889 6.65686 14.8126C6.35051 15.096 5.96758 15.2334 5.5506 15.2162C5.09107 15.199 4.70814 14.9929 4.41029 14.6409C3.95077 14.1086 3.91673 13.2413 4.35924 12.709C4.46986 12.5888 4.49539 12.4686 4.44433 12.3226C4.22308 11.6186 4.12947 10.8973 4.09543 10.1675C4.07841 9.79827 4.08692 9.43765 4.10394 9.06844C4.12947 8.46741 4.24861 7.88354 4.42731 7.31685C4.44859 7.24387 4.46774 7.16874 4.48688 7.09361C4.50603 7.01848 4.52518 6.94335 4.54645 6.87037C4.53794 6.86178 4.52092 6.85319 4.52092 6.85319C4.50702 6.86722 4.4917 6.87981 4.4767 6.89214C4.45497 6.91001 4.43391 6.92732 4.4188 6.94764C4.39753 6.9734 4.38051 7.0013 4.36349 7.0292L4.36349 7.02921C4.34647 7.05712 4.32945 7.08502 4.30818 7.11078C3.65293 7.99516 3.16787 8.96541 2.86152 10.0301C2.64027 10.8029 2.50411 11.6014 2.55517 12.4171C2.5807 12.7433 2.61474 13.0696 2.68282 13.3873C2.85301 14.1687 3.21042 14.847 3.78057 15.4137C4.29116 15.9203 4.89535 16.2637 5.57613 16.4869C6.4271 16.7617 7.3036 16.8476 8.18862 16.7875C8.62261 16.7531 9.0481 16.693 9.47359 16.59C10.3671 16.3753 11.1926 15.9975 11.9414 15.4652C12.4775 15.0874 12.9881 14.6752 13.3115 14.0828C13.4033 13.9206 13.503 13.7623 13.6051 13.6L13.6051 13.6L13.6051 13.5999L13.6051 13.5999L13.6052 13.5997C13.6457 13.5354 13.6866 13.4705 13.7275 13.4045H13.771L13.754 13.3616ZM19.2598 6.08902C19.2598 5.75416 19.0385 5.51374 18.7322 5.51374C18.3918 5.51374 18.1365 5.75416 18.1365 6.08043C18.1365 6.40671 18.3833 6.6643 18.6896 6.65571C19.0385 6.65571 19.2598 6.42388 19.2598 6.08902ZM10.461 11.7984C10.4783 11.7635 10.4942 11.7286 10.5098 11.6942C10.5326 11.6441 10.5549 11.5953 10.5801 11.5494C10.8099 11.1716 11.0652 10.811 11.3545 10.4847C11.7034 10.0983 12.1204 9.78923 12.5629 9.51447C13.1926 9.13667 13.8393 8.81898 14.5456 8.6215C14.903 8.52705 15.2775 8.46695 15.6434 8.41543C15.8128 8.38808 15.9876 8.38251 16.1592 8.37704C16.2031 8.37564 16.2468 8.37425 16.2901 8.3725C16.3607 8.3725 16.4323 8.37061 16.5041 8.36871H16.5041C16.6488 8.36488 16.7947 8.36103 16.9369 8.3725C17.4645 8.41543 17.9836 8.49271 18.4856 8.64726C19.1494 8.84474 19.7451 9.16243 20.2642 9.63468C20.9194 10.2357 21.3279 10.9827 21.5236 11.8499C21.6342 12.3308 21.6683 12.8202 21.6428 13.301C21.6002 14.1081 21.4215 14.8894 21.1492 15.645C20.8684 16.4436 20.4514 17.1734 20.0004 17.886C19.9408 17.9805 19.8727 18.0664 19.8047 18.1522C19.7706 18.1951 19.7281 18.2381 19.6685 18.2724C19.6947 18.1818 19.7193 18.0911 19.7436 18.0012C19.7746 17.8867 19.8053 17.7734 19.8387 17.6628C19.9578 17.2507 20.0344 16.8299 20.094 16.4006C20.1536 15.9456 20.1621 15.4905 20.1365 15.044C20.111 14.6319 20.0599 14.2283 19.9919 13.8248C19.955 13.5912 19.902 13.361 19.8487 13.13C19.8158 12.9872 19.7828 12.8442 19.7536 12.7C19.7451 12.657 19.7621 12.5883 19.7961 12.5454C20.528 11.6954 20.1536 10.2786 18.9452 9.97812C18.4261 9.84933 17.9666 9.97812 17.5581 10.3387C17.2773 10.5792 17.0901 10.8797 17.0305 11.2489C16.9709 11.6267 17.0305 11.9873 17.2262 12.3136C17.4645 12.7171 17.8049 12.9833 18.2644 13.0778C18.2941 13.0837 18.3248 13.0887 18.3559 13.0937L18.3559 13.0937L18.356 13.0937C18.4139 13.103 18.4728 13.1125 18.5282 13.1293C18.5622 13.1379 18.6048 13.1894 18.6048 13.2237C18.6473 13.653 18.6899 14.0823 18.7239 14.5117C18.7281 14.5704 18.7333 14.6297 18.7385 14.6892C18.7545 14.8733 18.7708 15.0598 18.758 15.2415C18.7154 15.8511 18.6133 16.4436 18.4176 17.0188C18.1963 17.6542 17.9155 18.2552 17.5411 18.8134C17.3113 19.1654 17.039 19.4917 16.7582 19.8008C16.3752 20.2301 15.9412 20.5993 15.4647 20.917C14.7414 21.4064 13.9585 21.7584 13.1075 21.9473C12.7671 22.0246 12.4182 22.059 12.0693 22.0933C11.7885 22.1191 11.5077 22.1276 11.2268 22.1191C10.6482 22.0933 10.078 21.9988 9.50788 21.8615C8.51224 21.6039 7.58468 21.2003 6.69115 20.6937C6.59755 20.6422 6.50394 20.5735 6.41884 20.5048C6.34225 20.4533 6.27418 20.4362 6.18057 20.4619L6.18045 20.4619C6.00179 20.5135 5.82312 20.565 5.64446 20.6079C5.39767 20.6594 5.1594 20.6165 4.93815 20.522C4.47862 20.3245 4.13823 20.0068 4.01059 19.5088C3.87443 18.9851 3.98506 18.5128 4.30843 18.1007C4.6318 17.6971 5.06579 17.5168 5.56787 17.5426C6.24014 17.5769 6.78476 18.0664 6.94644 18.6245C7.02303 18.882 7.03154 19.131 6.97197 19.3886C6.93794 19.526 6.95495 19.5518 7.09111 19.6033C7.21882 19.6429 7.34527 19.6864 7.47143 19.7298C7.67312 19.7991 7.87407 19.8682 8.07824 19.921C8.35055 19.9897 8.63137 20.024 8.91219 20.0498C9.26109 20.0841 9.60999 20.1099 9.95889 20.1013C10.478 20.0927 10.9886 19.9897 11.4992 19.8609C12.2735 19.6634 12.9884 19.3285 13.6521 18.8735C14.418 18.3411 15.0392 17.6714 15.4647 16.8385C15.703 16.3663 15.8732 15.8683 15.9412 15.3359C15.9838 15.0268 16.0178 14.7177 16.0093 14.4086C15.9923 13.7303 15.8221 13.0949 15.3966 12.5454C15.0818 12.1333 14.6563 11.8757 14.1882 11.6868C13.7883 11.5322 13.3798 11.455 12.9543 11.4635H12.3416C12.1033 11.4807 11.8736 11.5065 11.6438 11.5408C11.4055 11.5752 11.1588 11.6267 10.929 11.6782C10.8298 11.7005 10.7341 11.7371 10.6373 11.7742C10.5848 11.7943 10.5319 11.8146 10.478 11.8328L10.4439 11.7984H10.461ZM6.07845 19.0881C6.10398 18.7704 5.79763 18.5128 5.53383 18.5128C5.2445 18.5128 4.92113 18.7189 4.92964 19.0709C4.92964 19.4316 5.20195 19.672 5.49979 19.6806C5.8572 19.6806 6.10398 19.3629 6.07845 19.0881ZM18.0687 11.5236C18.0687 11.8242 18.324 12.0989 18.5793 12.0732L18.5878 12.0646C18.8516 12.0817 19.1324 11.8929 19.1324 11.5494C19.1239 11.2231 18.8856 10.9913 18.6303 10.9999C18.3325 11.0085 18.0687 11.2231 18.0687 11.5236ZM5.64446 13.0949C5.89975 13.0692 6.16355 13.3611 6.15504 13.6444C6.14653 13.9364 5.91677 14.1768 5.61042 14.1768C5.31258 14.1768 5.0743 13.9192 5.08281 13.6015C5.09132 13.3268 5.3381 13.1035 5.63595 13.1035L5.64446 13.0949Z" fill="white"/>
<path d="M35.7597 22.3856C34.0992 22.3856 32.6954 22.1203 31.5485 21.5896C30.4187 21.0589 29.5542 20.3314 28.9551 19.407C28.3559 18.4655 28.0563 17.4041 28.0563 16.2229H31.6255C31.6255 16.7194 31.7625 17.2073 32.0364 17.6866C32.3103 18.1488 32.7468 18.5254 33.3459 18.8164C33.9622 19.1074 34.7668 19.2529 35.7597 19.2529C36.6498 19.2529 37.3945 19.1245 37.9936 18.8677C38.5928 18.611 39.0378 18.2772 39.3289 17.8663C39.6199 17.4384 39.7654 16.959 39.7654 16.4284C39.7654 15.7607 39.4829 15.2301 38.918 14.8363C38.3531 14.4255 37.4801 14.1687 36.2989 14.066L34.6555 13.9376C32.8581 13.7836 31.4201 13.2272 30.3417 12.2686C29.2803 11.2928 28.7496 10.0089 28.7496 8.41691C28.7496 7.21862 29.0321 6.19151 29.597 5.33559C30.1619 4.46254 30.9494 3.79492 31.9594 3.33272C32.9865 2.85341 34.1848 2.61375 35.5542 2.61375C36.9751 2.61375 38.199 2.86197 39.2262 3.3584C40.2533 3.85484 41.0493 4.5567 41.6142 5.46397C42.1791 6.35414 42.4615 7.40692 42.4615 8.62234H38.8923C38.8923 8.10878 38.764 7.63802 38.5072 7.21006C38.2675 6.76498 37.8995 6.41405 37.403 6.15727C36.9237 5.88338 36.3074 5.74643 35.5542 5.74643C34.8353 5.74643 34.2361 5.86626 33.7568 6.10592C33.2775 6.34558 32.918 6.67083 32.6783 7.08167C32.4387 7.49252 32.3188 7.9376 32.3188 8.41691C32.3188 8.99894 32.5328 9.5125 32.9608 9.95758C33.3887 10.3855 34.0649 10.6338 34.9893 10.7022L36.6327 10.8563C37.9679 10.959 39.1406 11.2415 40.1505 11.7037C41.1605 12.1659 41.9394 12.7907 42.4872 13.5781C43.0521 14.3656 43.3346 15.3157 43.3346 16.4284C43.3346 17.6095 43.0265 18.6538 42.4102 19.561C41.7939 20.4512 40.9123 21.1445 39.7654 21.6409C38.6356 22.1374 37.3003 22.3856 35.7597 22.3856Z" fill="white"/>
<path d="M45.975 27.3928V24.3371H48.5941C49.0905 24.3371 49.5014 24.2686 49.8266 24.1317C50.169 24.0119 50.4515 23.8064 50.674 23.5154C50.8965 23.2415 51.0677 22.8564 51.1876 22.3599L54.9365 7.95471H58.3516L54.2175 23.1303C53.9436 24.1745 53.5585 25.0047 53.062 25.621C52.5656 26.2544 51.9237 26.708 51.1362 26.9819C50.3659 27.2558 49.4072 27.3928 48.2603 27.3928H45.975ZM50.3145 21.5896V18.765H53.2931V21.5896H50.3145ZM49.1077 21.5896L44.5884 7.95471H48.1833L52.4714 21.5896H49.1077Z" fill="white"/>
<path d="M60.8045 21.8977V7.95471H63.629V13.9376H63.3722C63.3722 12.5168 63.5605 11.3356 63.9372 10.3941C64.3138 9.43546 64.8701 8.71649 65.6062 8.23717C66.3594 7.75785 67.2924 7.51819 68.4051 7.51819H68.5591C70.2196 7.51819 71.4778 8.05743 72.3338 9.13589C73.1897 10.1972 73.6177 11.7893 73.6177 13.9119V21.8977H70.0485V13.6038C70.0485 12.7479 69.8002 12.0546 69.3038 11.5239C68.8245 10.9932 68.1569 10.7279 67.3009 10.7279C66.4279 10.7279 65.7175 11.0018 65.1697 11.5496C64.639 12.0803 64.3737 12.7992 64.3737 13.7065V21.8977H60.8045Z" fill="white"/>
<path d="M85.9029 21.8977V17.7636H85.3123V13.1673C85.3123 12.3627 85.1154 11.7636 84.7217 11.3699C84.3279 10.9761 83.7202 10.7793 82.8986 10.7793C82.4706 10.7793 81.957 10.7878 81.3579 10.8049C80.7587 10.8221 80.151 10.8477 79.5348 10.882C78.9356 10.8991 78.3964 10.9248 77.9171 10.959V7.92904C78.3108 7.8948 78.7559 7.86056 79.2523 7.82633C79.7488 7.79209 80.2537 7.77497 80.7673 7.77497C81.298 7.75785 81.7944 7.74929 82.2566 7.74929C83.6946 7.74929 84.8843 7.9376 85.8258 8.3142C86.7845 8.69081 87.5034 9.2814 87.9827 10.086C88.4792 10.8905 88.7274 11.9433 88.7274 13.2443V21.8977H85.9029ZM81.4092 22.2572C80.3993 22.2572 79.5091 22.0775 78.7388 21.718C77.9855 21.3585 77.395 20.8449 76.967 20.1773C76.5562 19.5097 76.3507 18.7051 76.3507 17.7636C76.3507 16.7365 76.5989 15.8977 77.0954 15.2472C77.6089 14.5967 78.3194 14.1088 79.2266 13.7836C80.151 13.4583 81.2295 13.2957 82.462 13.2957H85.6974V15.4269H82.4107C81.589 15.4269 80.9556 15.6324 80.5105 16.0432C80.0826 16.4369 79.8686 16.9505 79.8686 17.5839C79.8686 18.2172 80.0826 18.7308 80.5105 19.1245C80.9556 19.5182 81.589 19.7151 82.4107 19.7151C82.9071 19.7151 83.3608 19.6295 83.7716 19.4583C84.1996 19.27 84.5505 18.9619 84.8244 18.5339C85.1154 18.0889 85.278 17.4897 85.3123 16.7365L86.1853 17.7379C86.0997 18.7137 85.8601 19.5354 85.4663 20.203C85.0897 20.8706 84.559 21.3842 83.8743 21.7437C83.2067 22.086 82.385 22.2572 81.4092 22.2572Z" fill="white"/>
<path d="M92.5506 27.0333V7.95471H95.3751V13.9633L94.9386 13.9376C95.0071 12.5168 95.2981 11.3271 95.8116 10.3684C96.3423 9.40979 97.0442 8.69937 97.9172 8.23717C98.7903 7.75785 99.766 7.51819 100.844 7.51819C101.837 7.51819 102.728 7.69794 103.515 8.05743C104.32 8.41691 105.004 8.92191 105.569 9.57241C106.151 10.2229 106.596 10.9847 106.904 11.8577C107.213 12.7137 107.367 13.6381 107.367 14.6309V15.1702C107.367 16.1801 107.213 17.1217 106.904 17.9947C106.613 18.8506 106.177 19.6124 105.595 20.28C105.03 20.9305 104.345 21.4441 103.541 21.8207C102.736 22.1802 101.837 22.3599 100.844 22.3599C99.8003 22.3599 98.8416 22.1459 97.9686 21.718C97.1127 21.2729 96.4193 20.5967 95.8887 19.6894C95.358 18.765 95.0584 17.5753 94.99 16.1202L96.1198 17.8406V27.0333H92.5506ZM99.9458 19.3556C100.716 19.3556 101.384 19.1673 101.949 18.7907C102.531 18.4141 102.984 17.892 103.31 17.2244C103.635 16.5396 103.797 15.7693 103.797 14.9134C103.797 14.0232 103.635 13.2529 103.31 12.6024C102.984 11.9519 102.531 11.4469 101.949 11.0874C101.384 10.7108 100.716 10.5225 99.9458 10.5225C99.2439 10.5225 98.5934 10.6766 97.9943 10.9847C97.4122 11.2928 96.9329 11.7465 96.5563 12.3456C96.1968 12.9448 96.0171 13.6637 96.0171 14.5025V15.5296C96.0171 16.3342 96.2054 17.019 96.582 17.5839C96.9586 18.1488 97.4465 18.5853 98.0456 18.8934C98.6448 19.2016 99.2781 19.3556 99.9458 19.3556Z" fill="white"/>
<path d="M115.563 22.3342C113.646 22.3342 112.14 21.932 111.044 21.1274C109.966 20.3057 109.401 19.1759 109.349 17.7379H112.559C112.611 18.2172 112.876 18.6538 113.355 19.0475C113.834 19.4412 114.588 19.6381 115.615 19.6381C116.471 19.6381 117.147 19.484 117.643 19.1759C118.157 18.8677 118.414 18.4483 118.414 17.9177C118.414 17.4555 118.217 17.0874 117.823 16.8135C117.446 16.5396 116.796 16.3599 115.872 16.2743L114.639 16.1459C113.081 15.9747 111.883 15.5296 111.044 14.8107C110.205 14.0917 109.786 13.1331 109.786 11.9348C109.786 10.9761 110.026 10.1716 110.505 9.52106C110.984 8.87055 111.643 8.38268 112.482 8.05743C113.338 7.71506 114.314 7.54387 115.409 7.54387C117.121 7.54387 118.508 7.92048 119.569 8.67369C120.631 9.4269 121.187 10.531 121.238 11.9861H118.028C117.994 11.5068 117.755 11.096 117.31 10.7536C116.864 10.4112 116.223 10.24 115.384 10.24C114.63 10.24 114.048 10.3855 113.638 10.6766C113.227 10.9676 113.021 11.3442 113.021 11.8064C113.021 12.2515 113.184 12.5938 113.509 12.8335C113.852 13.0731 114.399 13.2358 115.153 13.3214L116.385 13.4497C118.029 13.6209 119.312 14.0746 120.237 14.8107C121.178 15.5468 121.649 16.5396 121.649 17.7893C121.649 18.7137 121.392 19.5183 120.879 20.203C120.382 20.8706 119.68 21.3927 118.773 21.7693C117.866 22.1459 116.796 22.3342 115.563 22.3342Z" fill="white"/>
<path d="M125.265 21.8977V7.95471H128.834V21.8977H125.265ZM123.314 10.6252V7.95471H128.834V10.6252H123.314ZM126.575 6.28566C125.873 6.28566 125.351 6.10592 125.008 5.74643C124.683 5.36982 124.521 4.90762 124.521 4.35983C124.521 3.7778 124.683 3.30705 125.008 2.94756C125.351 2.58807 125.873 2.40833 126.575 2.40833C127.277 2.40833 127.79 2.58807 128.115 2.94756C128.441 3.30705 128.603 3.7778 128.603 4.35983C128.603 4.90762 128.441 5.36982 128.115 5.74643C127.79 6.10592 127.277 6.28566 126.575 6.28566Z" fill="white"/>
<path d="M138.006 22.3342C136.089 22.3342 134.583 21.932 133.487 21.1274C132.409 20.3057 131.844 19.1759 131.792 17.7379H135.002C135.053 18.2172 135.319 18.6538 135.798 19.0475C136.277 19.4412 137.031 19.6381 138.058 19.6381C138.914 19.6381 139.59 19.484 140.086 19.1759C140.6 18.8677 140.857 18.4483 140.857 17.9177C140.857 17.4555 140.66 17.0874 140.266 16.8135C139.889 16.5396 139.239 16.3599 138.315 16.2743L137.082 16.1459C135.524 15.9747 134.326 15.5296 133.487 14.8107C132.648 14.0917 132.229 13.1331 132.229 11.9348C132.229 10.9761 132.469 10.1716 132.948 9.52106C133.427 8.87055 134.086 8.38268 134.925 8.05743C135.781 7.71506 136.757 7.54387 137.852 7.54387C139.564 7.54387 140.951 7.92048 142.012 8.67369C143.073 9.4269 143.63 10.531 143.681 11.9861H140.471C140.437 11.5068 140.198 11.096 139.752 10.7536C139.307 10.4112 138.665 10.24 137.827 10.24C137.073 10.24 136.491 10.3855 136.081 10.6766C135.67 10.9676 135.464 11.3442 135.464 11.8064C135.464 12.2515 135.627 12.5938 135.952 12.8335C136.295 13.0731 136.842 13.2358 137.596 13.3214L138.828 13.4497C140.471 13.6209 141.755 14.0746 142.68 14.8107C143.621 15.5468 144.092 16.5396 144.092 17.7893C144.092 18.7137 143.835 19.5183 143.322 20.203C142.825 20.8706 142.123 21.3927 141.216 21.7693C140.309 22.1459 139.239 22.3342 138.006 22.3342Z" fill="white"/>
</svg>
